<?xml version="1.0" encoding="UTF-8"?>
<!DOCTYPE svg PUBLIC "-//W3C//DTD SVG 1.1//EN" "http://www.w3.org/Graphics/SVG/1.1/DTD/svg11.dtd">
<svg version="1.2" width="210mm" height="210mm" viewBox="0 0 21000 21000" preserveAspectRatio="xMidYMid" fill-rule="evenodd" stroke-width="28.222" stroke-linejoin="round" xmlns="http://www.w3.org/2000/svg" xmlns:ooo="http://xml.openoffice.org/svg/export" xmlns:xlink="http://www.w3.org/1999/xlink" xmlns:presentation="http://sun.com/xmlns/staroffice/presentation" xmlns:smil="http://www.w3.org/2001/SMIL20/" xmlns:anim="urn:oasis:names:tc:opendocument:xmlns:animation:1.0" xml:space="preserve">
 <defs class="ClipPathGroup">
  <clipPath id="presentation_clip_path" clipPathUnits="userSpaceOnUse">
   <rect x="0" y="0" width="21000" height="21000"/>
  </clipPath>
  <clipPath id="presentation_clip_path_shrink" clipPathUnits="userSpaceOnUse">
   <rect x="21" y="21" width="20958" height="20958"/>
  </clipPath>
 </defs>
 <defs class="TextShapeIndex">
  <g ooo:slide="id1" ooo:id-list="id3 id4 id5 id6 id7 id8 id9 id10 id11 id12 id13 id14"/>
 </defs>
 <defs class="EmbeddedBulletChars">
  <g id="bullet-char-template-57356" transform="scale(0.00048828125,-0.00048828125)">
   <path d="M 580,1141 L 1163,571 580,0 -4,571 580,1141 Z"/>
  </g>
  <g id="bullet-char-template-57354" transform="scale(0.00048828125,-0.00048828125)">
   <path d="M 8,1128 L 1137,1128 1137,0 8,0 8,1128 Z"/>
  </g>
  <g id="bullet-char-template-10146" transform="scale(0.00048828125,-0.00048828125)">
   <path d="M 174,0 L 602,739 174,1481 1456,739 174,0 Z M 1358,739 L 309,1346 659,739 1358,739 Z"/>
  </g>
  <g id="bullet-char-template-10132" transform="scale(0.00048828125,-0.00048828125)">
   <path d="M 2015,739 L 1276,0 717,0 1260,543 174,543 174,936 1260,936 717,1481 1274,1481 2015,739 Z"/>
  </g>
  <g id="bullet-char-template-10007" transform="scale(0.00048828125,-0.00048828125)">
   <path d="M 0,-2 C -7,14 -16,27 -25,37 L 356,567 C 262,823 215,952 215,954 215,979 228,992 255,992 264,992 276,990 289,987 310,991 331,999 354,1012 L 381,999 492,748 772,1049 836,1024 860,1049 C 881,1039 901,1025 922,1006 886,937 835,863 770,784 769,783 710,716 594,584 L 774,223 C 774,196 753,168 711,139 L 727,119 C 717,90 699,76 672,76 641,76 570,178 457,381 L 164,-76 C 142,-110 111,-127 72,-127 30,-127 9,-110 8,-76 1,-67 -2,-52 -2,-32 -2,-23 -1,-13 0,-2 Z"/>
  </g>
  <g id="bullet-char-template-10004" transform="scale(0.00048828125,-0.00048828125)">
   <path d="M 285,-33 C 182,-33 111,30 74,156 52,228 41,333 41,471 41,549 55,616 82,672 116,743 169,778 240,778 293,778 328,747 346,684 L 369,508 C 377,444 397,411 428,410 L 1163,1116 C 1174,1127 1196,1133 1229,1133 1271,1133 1292,1118 1292,1087 L 1292,965 C 1292,929 1282,901 1262,881 L 442,47 C 390,-6 338,-33 285,-33 Z"/>
  </g>
  <g id="bullet-char-template-9679" transform="scale(0.00048828125,-0.00048828125)">
   <path d="M 813,0 C 632,0 489,54 383,161 276,268 223,411 223,592 223,773 276,916 383,1023 489,1130 632,1184 813,1184 992,1184 1136,1130 1245,1023 1353,916 1407,772 1407,592 1407,412 1353,268 1245,161 1136,54 992,0 813,0 Z"/>
  </g>
  <g id="bullet-char-template-8226" transform="scale(0.00048828125,-0.00048828125)">
   <path d="M 346,457 C 273,457 209,483 155,535 101,586 74,649 74,723 74,796 101,859 155,911 209,963 273,989 346,989 419,989 480,963 531,910 582,859 608,796 608,723 608,648 583,586 532,535 482,483 420,457 346,457 Z"/>
  </g>
  <g id="bullet-char-template-8211" transform="scale(0.00048828125,-0.00048828125)">
   <path d="M -4,459 L 1135,459 1135,606 -4,606 -4,459 Z"/>
  </g>
  <g id="bullet-char-template-61548" transform="scale(0.00048828125,-0.00048828125)">
   <path d="M 173,740 C 173,903 231,1043 346,1159 462,1274 601,1332 765,1332 928,1332 1067,1274 1183,1159 1299,1043 1357,903 1357,740 1357,577 1299,437 1183,322 1067,206 928,148 765,148 601,148 462,206 346,322 231,437 173,577 173,740 Z"/>
  </g>
 </defs>
 <g>
  <g id="id2" class="Master_Slide">
   <g id="bg-id2" class="Background"/>
   <g id="bo-id2" class="BackgroundObjects"/>
  </g>
 </g>
 <g class="SlideGroup">
  <g>
   <g id="container-id1">
    <g id="id1" class="Slide" clip-path="url(#presentation_clip_path)">
     <g class="Page">
      <g class="com.sun.star.drawing.CustomShape">
       <g id="id3">
        <rect class="BoundingBox" stroke="none" fill="none" x="5698" y="7357" width="6767" height="6901"/>
        <path fill="rgb(114,159,207)" stroke="none" d="M 9081,14256 L 5699,14256 5699,7358 12463,7358 12463,14256 9081,14256 Z"/>
        <path fill="none" stroke="rgb(52,101,164)" d="M 9081,14256 L 5699,14256 5699,7358 12463,7358 12463,14256 9081,14256 Z"/>
       </g>
      </g>
      <g class="com.sun.star.drawing.CustomShape">
       <g id="id4">
        <rect class="BoundingBox" stroke="none" fill="none" x="3399" y="6804" width="11233" height="2624"/>
        <path fill="rgb(255,134,13)" stroke="none" d="M 14575,9426 L 14607,9311 14626,9196 14630,9080 14619,8964 14595,8849 14557,8734 14504,8621 14438,8508 14357,8397 14264,8288 14157,8181 14037,8076 13904,7974 13759,7875 13602,7778 13433,7686 13253,7596 13063,7511 12862,7430 12651,7352 12432,7280 12203,7212 11967,7148 11723,7090 11472,7037 11215,6989 10952,6946 10685,6909 10413,6877 10138,6851 9859,6831 9579,6817 9297,6808 9015,6805 8733,6808 8451,6817 8171,6831 7892,6851 7617,6877 7345,6909 7078,6946 6815,6989 6558,7037 6307,7090 6063,7148 5827,7212 5598,7280 5379,7352 5168,7430 4967,7511 4777,7596 4597,7686 4428,7778 4271,7875 4126,7974 3993,8076 3873,8181 3766,8288 3673,8397 3592,8508 3526,8621 3473,8734 3435,8849 3411,8964 3400,9080 3404,9196 3423,9311 3455,9426 5066,9333 5043,9251 5030,9169 5027,9087 5034,9005 5052,8923 5079,8842 5116,8761 5164,8681 5221,8602 5287,8524 5363,8448 5448,8374 5543,8301 5646,8231 5757,8163 5877,8097 6005,8033 6140,7973 6283,7915 6432,7860 6588,7808 6751,7760 6919,7715 7092,7674 7270,7636 7453,7602 7639,7571 7829,7545 8022,7522 8218,7504 8415,7490 8614,7479 8814,7473 9015,7471 9216,7473 9416,7479 9615,7490 9812,7504 10008,7522 10201,7545 10391,7571 10577,7602 10760,7636 10938,7674 11111,7715 11279,7760 11442,7808 11598,7860 11747,7915 11890,7973 12025,8033 12153,8097 12273,8163 12384,8231 12487,8301 12582,8374 12667,8448 12743,8524 12809,8602 12866,8681 12914,8761 12951,8842 12978,8923 12996,9005 13003,9087 13000,9169 12987,9251 12964,9333 14575,9426 Z"/>
        <path fill="none" stroke="rgb(52,101,164)" d="M 14575,9426 L 14607,9311 14626,9196 14630,9080 14619,8964 14595,8849 14557,8734 14504,8621 14438,8508 14357,8397 14264,8288 14157,8181 14037,8076 13904,7974 13759,7875 13602,7778 13433,7686 13253,7596 13063,7511 12862,7430 12651,7352 12432,7280 12203,7212 11967,7148 11723,7090 11472,7037 11215,6989 10952,6946 10685,6909 10413,6877 10138,6851 9859,6831 9579,6817 9297,6808 9015,6805 8733,6808 8451,6817 8171,6831 7892,6851 7617,6877 7345,6909 7078,6946 6815,6989 6558,7037 6307,7090 6063,7148 5827,7212 5598,7280 5379,7352 5168,7430 4967,7511 4777,7596 4597,7686 4428,7778 4271,7875 4126,7974 3993,8076 3873,8181 3766,8288 3673,8397 3592,8508 3526,8621 3473,8734 3435,8849 3411,8964 3400,9080 3404,9196 3423,9311 3455,9426 5066,9333 5043,9251 5030,9169 5027,9087 5034,9005 5052,8923 5079,8842 5116,8761 5164,8681 5221,8602 5287,8524 5363,8448 5448,8374 5543,8301 5646,8231 5757,8163 5877,8097 6005,8033 6140,7973 6283,7915 6432,7860 6588,7808 6751,7760 6919,7715 7092,7674 7270,7636 7453,7602 7639,7571 7829,7545 8022,7522 8218,7504 8415,7490 8614,7479 8814,7473 9015,7471 9216,7473 9416,7479 9615,7490 9812,7504 10008,7522 10201,7545 10391,7571 10577,7602 10760,7636 10938,7674 11111,7715 11279,7760 11442,7808 11598,7860 11747,7915 11890,7973 12025,8033 12153,8097 12273,8163 12384,8231 12487,8301 12582,8374 12667,8448 12743,8524 12809,8602 12866,8681 12914,8761 12951,8842 12978,8923 12996,9005 13003,9087 13000,9169 12987,9251 12964,9333 14575,9426 Z"/>
       </g>
      </g>
      <g class="com.sun.star.drawing.CustomShape">
       <g id="id5">
        <rect class="BoundingBox" stroke="none" fill="none" x="9293" y="5810" width="3318" height="2331"/>
        <path fill="rgb(255,134,13)" stroke="none" d="M 12596,6975 C 12596,7177 12520,7376 12376,7551 12231,7725 12024,7871 11774,7972 11524,8073 11240,8126 10952,8126 10663,8126 10379,8073 10129,7972 9879,7871 9672,7725 9527,7551 9383,7376 9307,7177 9307,6975 9307,6773 9383,6574 9527,6400 9672,6225 9879,6079 10129,5978 10379,5877 10663,5824 10951,5824 11240,5824 11524,5877 11774,5978 12024,6079 12231,6225 12376,6399 12520,6574 12596,6773 12596,6975 L 12596,6975 Z"/>
        <path fill="none" stroke="rgb(0,0,0)" stroke-width="28" stroke-linejoin="round" d="M 12596,6975 C 12596,7177 12520,7376 12376,7551 12231,7725 12024,7871 11774,7972 11524,8073 11240,8126 10952,8126 10663,8126 10379,8073 10129,7972 9879,7871 9672,7725 9527,7551 9383,7376 9307,7177 9307,6975 9307,6773 9383,6574 9527,6400 9672,6225 9879,6079 10129,5978 10379,5877 10663,5824 10951,5824 11240,5824 11524,5877 11774,5978 12024,6079 12231,6225 12376,6399 12520,6574 12596,6773 12596,6975 L 12596,6975 Z"/>
       </g>
      </g>
      <g class="com.sun.star.drawing.CustomShape">
       <g id="id6">
        <rect class="BoundingBox" stroke="none" fill="none" x="5834" y="5685" width="3317" height="2331"/>
        <path fill="rgb(255,134,13)" stroke="none" d="M 9136,6850 C 9136,7052 9060,7251 8916,7426 8771,7600 8564,7746 8314,7847 8064,7948 7781,8001 7492,8001 7203,8001 6920,7948 6670,7847 6420,7746 6213,7600 6068,7426 5924,7251 5848,7052 5848,6850 5848,6648 5924,6449 6068,6275 6213,6100 6420,5954 6670,5853 6920,5752 7203,5699 7492,5699 7781,5699 8064,5752 8314,5853 8564,5954 8771,6100 8916,6274 9060,6449 9136,6648 9136,6850 L 9136,6850 Z"/>
        <path fill="none" stroke="rgb(0,0,0)" stroke-width="28" stroke-linejoin="round" d="M 9136,6850 C 9136,7052 9060,7251 8916,7426 8771,7600 8564,7746 8314,7847 8064,7948 7781,8001 7492,8001 7203,8001 6920,7948 6670,7847 6420,7746 6213,7600 6068,7426 5924,7251 5848,7052 5848,6850 5848,6648 5924,6449 6068,6275 6213,6100 6420,5954 6670,5853 6920,5752 7203,5699 7492,5699 7781,5699 8064,5752 8314,5853 8564,5954 8771,6100 8916,6274 9060,6449 9136,6648 9136,6850 L 9136,6850 Z"/>
       </g>
      </g>
      <g class="com.sun.star.drawing.CustomShape">
       <g id="id7">
        <rect class="BoundingBox" stroke="none" fill="none" x="8583" y="6451" width="966" height="1048"/>
        <path fill="rgb(255,134,13)" stroke="none" d="M 9533,6975 C 9533,7064 9511,7152 9470,7229 9429,7307 9370,7371 9299,7416 9228,7460 9147,7484 9065,7484 8983,7484 8902,7460 8831,7416 8760,7371 8701,7307 8660,7229 8619,7152 8597,7064 8597,6975 8597,6886 8619,6798 8660,6720 8701,6643 8760,6579 8831,6534 8902,6490 8983,6466 9065,6466 9147,6466 9228,6490 9299,6534 9370,6579 9429,6643 9470,6720 9511,6798 9533,6886 9533,6975 L 9533,6975 Z"/>
        <path fill="none" stroke="rgb(0,0,0)" stroke-width="28" stroke-linejoin="round" d="M 9533,6975 C 9533,7064 9511,7152 9470,7229 9429,7307 9370,7371 9299,7416 9228,7460 9147,7484 9065,7484 8983,7484 8902,7460 8831,7416 8760,7371 8701,7307 8660,7229 8619,7152 8597,7064 8597,6975 8597,6886 8619,6798 8660,6720 8701,6643 8760,6579 8831,6534 8902,6490 8983,6466 9065,6466 9147,6466 9228,6490 9299,6534 9370,6579 9429,6643 9470,6720 9511,6798 9533,6886 9533,6975 L 9533,6975 Z"/>
       </g>
      </g>
      <g class="com.sun.star.drawing.CustomShape">
       <g id="id8">
        <rect class="BoundingBox" stroke="none" fill="none" x="10197" y="9823" width="6958" height="6932"/>
        <path fill="rgb(238,238,238)" stroke="none" d="M 17101,13289 C 17101,13888 16943,14476 16642,14995 16341,15514 15909,15944 15388,16244 14868,16543 14277,16701 13675,16701 13074,16701 12483,16543 11963,16244 11442,15944 11010,15514 10709,14995 10408,14476 10250,13888 10250,13289 10250,12689 10408,12101 10709,11582 11010,11063 11442,10633 11963,10333 12483,10034 13074,9876 13675,9876 14277,9876 14868,10034 15388,10333 15909,10633 16341,11063 16642,11582 16943,12101 17101,12689 17101,13288 L 17101,13289 Z"/>
        <path fill="none" stroke="rgb(0,0,0)" stroke-width="106" stroke-linejoin="round" d="M 17101,13289 C 17101,13888 16943,14476 16642,14995 16341,15514 15909,15944 15388,16244 14868,16543 14277,16701 13675,16701 13074,16701 12483,16543 11963,16244 11442,15944 11010,15514 10709,14995 10408,14476 10250,13888 10250,13289 10250,12689 10408,12101 10709,11582 11010,11063 11442,10633 11963,10333 12483,10034 13074,9876 13675,9876 14277,9876 14868,10034 15388,10333 15909,10633 16341,11063 16642,11582 16943,12101 17101,12689 17101,13288 L 17101,13289 Z"/>
       </g>
      </g>
      <g class="com.sun.star.drawing.CustomShape">
       <g id="id9">
        <rect class="BoundingBox" stroke="none" fill="none" x="12296" y="11754" width="2760" height="2759"/>
        <path fill="rgb(0,0,0)" stroke="none" d="M 13675,11755 L 12297,12808 12836,14511 14514,14511 15054,12808 13675,11755 13675,11755 Z"/>
        <path fill="none" stroke="rgb(52,101,164)" d="M 13675,11755 L 12297,12808 12836,14511 14514,14511 15054,12808 13675,11755 13675,11755 Z"/>
       </g>
      </g>
      <g class="com.sun.star.drawing.CustomShape">
       <g id="id10">
        <rect class="BoundingBox" stroke="none" fill="none" x="12721" y="10003" width="1768" height="1446"/>
        <path fill="rgb(0,0,0)" stroke="none" d="M 13604,11447 L 14487,10004 12722,10004 13604,11447 Z"/>
        <path fill="none" stroke="rgb(52,101,164)" d="M 13604,11447 L 14487,10004 12722,10004 13604,11447 Z"/>
       </g>
      </g>
      <g class="com.sun.star.drawing.CustomShape">
       <g id="id11">
        <rect class="BoundingBox" stroke="none" fill="none" x="11098" y="14636" width="1485" height="1755"/>
        <path fill="rgb(0,0,0)" stroke="none" d="M 11099,15513 L 12581,16389 12581,14637 11099,15513 Z"/>
        <path fill="none" stroke="rgb(52,101,164)" d="M 11099,15513 L 12581,16389 12581,14637 11099,15513 Z"/>
       </g>
      </g>
      <g class="com.sun.star.drawing.CustomShape">
       <g id="id12">
        <rect class="BoundingBox" stroke="none" fill="none" x="14833" y="14754" width="1692" height="1625"/>
        <path fill="rgb(0,0,0)" stroke="none" d="M 14834,14755 L 15294,16377 16523,15148 14834,14755 Z"/>
        <path fill="none" stroke="rgb(52,101,164)" d="M 14834,14755 L 15294,16377 16523,15148 14834,14755 Z"/>
       </g>
      </g>
      <g class="com.sun.star.drawing.CustomShape">
       <g id="id13">
        <rect class="BoundingBox" stroke="none" fill="none" x="15332" y="11199" width="1768" height="1446"/>
        <path fill="rgb(0,0,0)" stroke="none" d="M 16216,11200 L 15333,12643 17098,12643 16216,11200 Z"/>
        <path fill="none" stroke="rgb(52,101,164)" d="M 16216,11200 L 15333,12643 17098,12643 16216,11200 Z"/>
       </g>
      </g>
      <g class="com.sun.star.drawing.CustomShape">
       <g id="id14">
        <rect class="BoundingBox" stroke="none" fill="none" x="10248" y="11188" width="1768" height="1446"/>
        <path fill="rgb(0,0,0)" stroke="none" d="M 11132,11189 L 10249,12632 12014,12632 11132,11189 Z"/>
        <path fill="none" stroke="rgb(52,101,164)" d="M 11132,11189 L 10249,12632 12014,12632 11132,11189 Z"/>
       </g>
      </g>
     </g>
    </g>
   </g>
  </g>
 </g>
</svg>